# xmcd CD database file
#
# Track frame offsets:
#	150
#	10237
#	30652
#	56485
#	82067
#	108357
#	140655
#	149982
#	178727
#	204265
#	230285
#
# Disc length: 3367 seconds
#
# Revision: 0
# Processed by: cddbd v1.5.2PL0 Copyright (c) Steve Scherf et al.
# Submitted via: CDex 1.51
#
DISCID=9b0d250b
DTITLE=Michael Gettel - The Key (Narada Equinox)
DYEAR=1994
DGENRE=New Age
TTITLE0=Waiting
TTITLE1=Turning of a Key
TTITLE2=Breaking the Silence
TTITLE3=When Hearts Collide
TTITLE4=The Search
TTITLE5=Glimmer of Hope
TTITLE6=Broken
TTITLE7=Light of a Candle
TTITLE8=Letting Go
TTITLE9=The Awakening
TTITLE10=Through the doorway
EXTD=YEAR: 1994
EXTT0=
EXTT1=
EXTT2=
EXTT3=
EXTT4=
EXTT5=
EXTT6=
EXTT7=
EXTT8=
EXTT9=
EXTT10=
PLAYORDER=
